<svg xmlns="http://www.w3.org/2000/svg" viewBox="0 0 24 24" width="24" height="24">
  <title>brain</title>
  <path transform="matrix(0.6484295845997974, 0, 0, 0.6484295845997974, 0.6398176291793314, 17.486322188449847)" d="M2.10-9.35C2.10-5.07 5.03-2.24 9.42-2.24C10.09-2.24 10.72-2.30 11.32-2.41C12.61-1.25 14.55-0.50 16.80-0.50C17.63-0.50 18.54-0.61 19.45-0.83C20.30 0.08 21.60 0.61 23.09 0.61C23.37 0.61 23.67 0.59 23.98 0.57C24.25 2.57 25.50 4.50 27.53 4.50C30.46 4.50 31.89 0.94 31.89-2.53C31.89-3.76 31.83-4.66 31.76-5.47C32.52-6.46 32.94-7.73 32.94-9.25C32.94-12.21 30.95-14.50 27.90-15.11C27.29-17.89 24.95-19.68 22.32-19.68C22.09-19.68 21.76-19.63 21.43-19.56C20.50-20.72 19.00-21.42 17.36-21.42C15.56-21.42 14.04-20.74 13.00-19.59C12.13-19.99 11.24-20.17 10.37-20.17C7.54-20.17 5.26-18.23 5.26-15.46C5.26-15.42 5.26-15.38 5.26-15.34C3.29-14.02 2.10-11.75 2.10-9.35ZM11.51-15.77C11.48-15.16 11.89-14.75 12.43-14.75C12.95-14.75 13.35-15.09 13.37-15.69C13.45-17.92 15.07-19.55 17.34-19.55C18.71-19.55 19.91-18.82 20.39-17.74C20.48-17.57 20.61-17.55 20.84-17.63C21.22-17.73 21.66-17.79 22.08-17.79C24.18-17.77 26.17-16.18 26.17-13.66C26.17-8.16 18.43-8.92 18.43-3.55C18.43-3.20 18.48-2.86 18.55-2.55C18.05-2.44 17.51-2.39 17.00-2.39C15.76-2.39 14.51-2.70 13.56-3.21C15.49-4.29 16.64-6.20 16.64-8.61C16.64-8.86 16.63-9.11 16.59-9.34C19.23-10.02 20.41-11.81 20.41-14.41C20.41-14.93 19.98-15.35 19.46-15.35C18.95-15.35 18.53-14.93 18.53-14.41C18.53-12.66 17.85-11.55 16.07-11.13C15.82-11.59 15.52-11.99 15.14-12.30C14.71-12.66 14.46-12.79 14.05-12.79C13.51-12.79 13.14-12.46 13.14-11.98C13.14-11.39 13.48-11.24 14.02-10.75C14.51-10.27 14.79-9.54 14.79-8.65C14.79-5.93 12.66-4.11 9.46-4.11C6.18-4.11 3.98-6.21 3.98-9.36C3.98-10.89 4.63-12.33 5.73-13.32C6.45-11.88 7.95-10.98 9.95-10.98C10.45-10.98 10.89-11.40 10.89-11.92C10.89-12.43 10.45-12.87 9.95-12.87C8.21-12.87 7.15-13.96 7.15-15.46C7.15-17.12 8.52-18.28 10.36-18.28C10.89-18.28 11.44-18.19 11.98-17.98C11.71-17.31 11.54-16.57 11.51-15.77ZM25.29-4.28C25.29-3.75 25.71-3.38 26.24-3.34C27.67-3.25 28.92-3.48 29.95-4.01C29.99-3.55 30.01-3.08 30.01-2.55C30.01 0.29 28.93 2.61 27.53 2.61C26.07 2.61 25.49 0.68 25.49-0.86C25.49-0.98 25.42-1.07 25.25-1.05C24.93-1.05 24.48-1.04 24.19-1.04C21.86-1.04 20.32-1.77 20.32-3.59C20.32-7.77 27.69-6.95 28.04-13.21C29.88-12.82 31.05-11.32 31.05-9.25C31.05-6.61 29.12-4.99 26.24-5.21C25.71-5.26 25.29-4.79 25.29-4.28Z" fill="currentColor"/>
</svg>