<svg xmlns="http://www.w3.org/2000/svg" viewBox="0 0 24 24" width="24" height="24">
  <title>chart.xyaxis.line</title>
  <path transform="matrix(0.7937984496124031, 0, 0, 0.7937984496124031, -0.3720930232558137, 18.655813953488373)" d="M2.99 1.52C2.99 2.09 3.36 2.45 3.93 2.45L27.23 2.45C27.75 2.45 28.18 2.04 28.18 1.51C28.18 1.00 27.75 0.57 27.23 0.57L5.20 0.57C4.96 0.57 4.88 0.49 4.88 0.25L4.88-6.14L10.11-9.18C10.49-8.79 11.02-8.54 11.60-8.54C12.13-8.54 12.61-8.74 12.98-9.07L15.22-7.15C15.11-6.90 15.05-6.62 15.05-6.33C15.05-5.18 15.98-4.24 17.13-4.24C18.28-4.24 19.21-5.18 19.21-6.33C19.21-6.45 19.21-6.56 19.18-6.67L24.73-9.98C25.08-9.73 25.50-9.57 25.97-9.57C27.12-9.57 28.05-10.51 28.05-11.66C28.05-12.81 27.12-13.75 25.97-13.75C24.82-13.75 23.88-12.81 23.88-11.66C23.88-11.48 23.91-11.32 23.95-11.16L18.50-7.89C18.14-8.21 17.66-8.40 17.13-8.40C16.77-8.40 16.42-8.31 16.13-8.14L13.65-10.27C13.68-10.38 13.69-10.50 13.69-10.63C13.69-11.78 12.75-12.70 11.60-12.70C10.45-12.70 9.52-11.78 9.52-10.63C9.52-10.56 9.53-10.50 9.53-10.44L4.88-7.75L4.88-18.28C4.88-18.79 4.45-19.22 3.94-19.22C3.41-19.22 2.99-18.79 2.99-18.28Z" fill="currentColor"/>
</svg>