<svg xmlns="http://www.w3.org/2000/svg" viewBox="0 0 24 24" width="24" height="24">
  <title>checkmark.diamond</title>
  <path transform="matrix(0.75253567702739, 0, 0, 0.75253567702739, 0.20214180671651083, 18.368823384955846)" d="M3.70-5.87L13.09 3.52C14.82 5.25 16.54 5.26 18.26 3.55L27.69-5.89C29.40-7.61 29.39-9.33 27.66-11.06L18.28-20.44C16.55-22.17 14.84-22.20 13.11-20.47L3.67-11.04C1.95-9.32 1.97-7.61 3.70-5.87ZM5.06-7.17C4.22-8.02 4.21-8.89 5.07-9.76L14.38-19.07C15.25-19.93 16.13-19.92 16.97-19.08L26.30-9.75C27.13-8.92 27.15-8.03 26.29-7.16L16.98 2.14C16.11 3.01 15.21 2.99 14.39 2.17ZM14.40-2.89C14.79-2.89 15.12-3.08 15.34-3.45L20.71-11.87C20.84-12.11 20.99-12.36 20.99-12.62C20.99-13.15 20.52-13.49 20.03-13.49C19.72-13.49 19.43-13.30 19.22-12.96L14.36-5.16L12.04-8.14C11.77-8.52 11.50-8.61 11.18-8.61C10.66-8.61 10.28-8.20 10.28-7.69C10.28-7.43 10.37-7.18 10.55-6.96L13.39-3.45C13.70-3.06 14.00-2.89 14.40-2.89Z" fill="currentColor"/>
</svg>