<svg xmlns="http://www.w3.org/2000/svg" viewBox="0 0 24 24" width="24" height="24">
  <title>checklist</title>
  <path transform="matrix(0.7612250966399049, 0, 0, 0.7612250966399049, -0.274754683318466, 18.422836752899197)" d="M8.04-10.16C10.79-10.16 13.09-12.47 13.09-15.22C13.09-17.99 10.79-20.27 8.04-20.27C5.27-20.27 2.99-17.99 2.99-15.22C2.99-12.47 5.29-10.16 8.04-10.16ZM7.44-12.50C7.20-12.50 7.03-12.63 6.86-12.83L5.54-14.41C5.44-14.55 5.39-14.68 5.39-14.87C5.39-15.21 5.65-15.48 5.96-15.48C6.19-15.48 6.35-15.39 6.50-15.19L7.42-14.03L9.50-17.38C9.64-17.59 9.82-17.71 10.03-17.71C10.36-17.71 10.64-17.45 10.64-17.16C10.64-16.99 10.59-16.85 10.49-16.68L8.04-12.83C7.91-12.62 7.70-12.50 7.44-12.50ZM16.65-14.26L28.30-14.26C28.83-14.26 29.26-14.68 29.26-15.21C29.26-15.74 28.83-16.15 28.30-16.15L16.65-16.15C16.11-16.15 15.70-15.74 15.70-15.21C15.70-14.68 16.11-14.26 16.65-14.26ZM8.04 3.40C10.79 3.40 13.09 1.10 13.09-1.65C13.09-4.43 10.79-6.71 8.04-6.71C5.27-6.71 2.99-4.42 2.99-1.65C2.99 1.10 5.29 3.40 8.04 3.40ZM8.04 1.69C6.22 1.69 4.70 0.15 4.70-1.65C4.70-3.47 6.23-5.00 8.04-5.00C9.84-5.00 11.38-3.47 11.38-1.65C11.38 0.15 9.84 1.69 8.04 1.69ZM16.65-0.71L28.30-0.71C28.83-0.71 29.26-1.13 29.26-1.65C29.26-2.19 28.83-2.60 28.30-2.60L16.65-2.60C16.11-2.60 15.70-2.19 15.70-1.65C15.70-1.13 16.11-0.71 16.65-0.71Z" fill="currentColor"/>
</svg>