<svg xmlns="http://www.w3.org/2000/svg" viewBox="0 0 24 24" width="24" height="24">
  <title>exclamationmark.triangle</title>
  <path transform="matrix(0.8142493638676844, 0, 0, 0.8142493638676844, 0.053435114503816994, 18.93702290076336)" d="M5.59 2.61L23.75 2.61C25.75 2.61 26.95 1.23 26.95-0.56C26.95-1.11 26.79-1.69 26.50-2.20L17.40-18.05C16.79-19.11 15.75-19.65 14.67-19.65C13.59-19.65 12.54-19.11 11.94-18.05L2.85-2.20C2.53-1.68 2.39-1.11 2.39-0.56C2.39 1.23 3.60 2.61 5.59 2.61ZM5.60 0.77C4.78 0.77 4.29 0.14 4.29-0.57C4.29-0.80 4.34-1.08 4.46-1.32L13.55-17.16C13.79-17.59 14.24-17.78 14.67-17.78C15.11-17.78 15.54-17.59 15.79-17.16L24.87-1.31C25.00-1.07 25.05-0.80 25.05-0.57C25.05 0.14 24.54 0.77 23.73 0.77ZM14.67-5.29C15.23-5.29 15.56-5.61 15.57-6.22L15.74-12.40C15.75-13.00 15.28-13.44 14.66-13.44C14.03-13.44 13.58-13.01 13.59-12.41L13.75-6.22C13.76-5.63 14.09-5.29 14.67-5.29ZM14.67-1.48C15.35-1.48 15.94-2.02 15.94-2.70C15.94-3.39 15.36-3.91 14.67-3.91C13.98-3.91 13.41-3.38 13.41-2.70C13.41-2.03 13.99-1.48 14.67-1.48Z" fill="currentColor"/>
</svg>