<svg xmlns="http://www.w3.org/2000/svg" viewBox="0 0 24 24" width="24" height="24">
  <title>function</title>
  <path transform="matrix(0.6394404895716248, 0, 0, 0.6394404895716248, 0.08917197452229297, 17.406519295616334)" d="M18.57 0.21C18.97 0.21 19.25-0.01 19.25-0.41C19.25-0.59 19.22-0.68 19.09-0.93C17.66-3.14 16.84-5.68 16.84-8.44C16.84-11.10 17.61-13.76 19.09-15.98C19.22-16.23 19.25-16.32 19.25-16.50C19.25-16.88 18.97-17.12 18.57-17.12C18.19-17.12 17.88-16.95 17.51-16.43C15.74-14.19 14.86-11.40 14.86-8.45C14.86-5.50 15.71-2.79 17.51-0.48C17.88 0.04 18.19 0.21 18.57 0.21ZM30.55 0.21C30.94 0.21 31.24 0.04 31.62-0.48C33.41-2.79 34.27-5.50 34.27-8.45C34.27-11.40 33.39-14.19 31.62-16.43C31.24-16.95 30.94-17.12 30.55-17.12C30.15-17.12 29.87-16.88 29.87-16.50C29.87-16.32 29.91-16.23 30.04-15.98C31.51-13.76 32.29-11.10 32.29-8.44C32.29-5.68 31.46-3.14 30.04-0.93C29.91-0.68 29.87-0.59 29.87-0.41C29.87-0.04 30.15 0.21 30.55 0.21ZM4.57 0.19C6.87 0.19 7.92-0.80 8.48-3.43L9.82-9.84L11.94-9.84C12.62-9.84 13.05-10.21 13.05-10.79C13.05-11.30 12.73-11.61 12.19-11.61L10.20-11.61L10.52-13.21C10.84-14.70 11.31-15.30 12.60-15.30C12.80-15.30 12.98-15.32 13.11-15.33C13.69-15.39 13.96-15.66 13.96-16.16C13.96-16.82 13.41-17.11 12.28-17.11C10.04-17.11 8.89-16.00 8.37-13.49L7.98-11.61L6.53-11.61C5.84-11.61 5.40-11.25 5.40-10.66C5.40-10.16 5.73-9.84 6.28-9.84L7.61-9.84L6.32-3.71C5.99-2.18 5.51-1.62 4.25-1.62C4.09-1.62 3.93-1.61 3.82-1.59C3.28-1.52 2.99-1.23 2.99-0.74C2.99-0.11 3.53 0.19 4.57 0.19ZM21.04-2.89C21.41-2.89 21.68-3.02 21.97-3.45L24.54-7.10L24.59-7.10L27.21-3.39C27.50-2.98 27.79-2.89 28.07-2.89C28.63-2.89 28.99-3.29 28.99-3.77C28.99-4.00 28.93-4.21 28.78-4.41L25.78-8.48L28.78-12.50C28.92-12.70 29.00-12.91 29.00-13.16C29.00-13.66 28.58-14.02 28.10-14.02C27.68-14.02 27.45-13.80 27.22-13.46L24.75-9.84L24.69-9.84L22.21-13.48C21.97-13.82 21.70-14.02 21.26-14.02C20.71-14.02 20.30-13.58 20.30-13.11C20.30-12.77 20.40-12.56 20.55-12.36L23.41-8.54L20.38-4.36C20.21-4.14 20.18-3.94 20.18-3.70C20.18-3.25 20.57-2.89 21.04-2.89Z" fill="currentColor"/>
</svg>