<svg xmlns="http://www.w3.org/2000/svg" viewBox="0 0 24 24" width="24" height="24">
  <title>gearshape.2</title>
  <path transform="matrix(0.6217364905889496, 0, 0, 0.6217364905889496, 0.6958105646630237, 17.264116575591984)" d="M10.45-2.81L12.16-2.81C12.90-2.81 13.48-3.27 13.64-3.96L13.97-5.46C14.00-5.47 14.05-5.48 14.09-5.50L15.41-4.71C16.01-4.35 16.75-4.42 17.25-4.93L18.45-6.13C18.97-6.66 19.04-7.38 18.67-7.98L17.86-9.26C17.87-9.30 17.89-9.34 17.91-9.39L19.37-9.74C20.06-9.91 20.52-10.50 20.52-11.23L20.52-12.82C20.52-13.55 20.07-14.13 19.37-14.31L17.91-14.66C17.89-14.71 17.87-14.74 17.86-14.79L18.67-16.07C19.04-16.68 18.97-17.39 18.45-17.92L17.25-19.11C16.75-19.63 16.01-19.70 15.41-19.34L14.09-18.55C14.04-18.56 14.00-18.57 13.96-18.59L13.64-20.09C13.49-20.78 12.90-21.23 12.16-21.23L10.45-21.23C9.71-21.23 9.14-20.78 8.98-20.09L8.65-18.59C8.60-18.57 8.57-18.56 8.52-18.55L7.21-19.34C6.61-19.70 5.87-19.63 5.37-19.11L4.17-17.92C3.64-17.39 3.59-16.66 3.95-16.07L4.76-14.79C4.75-14.74 4.72-14.71 4.71-14.66L3.23-14.31C2.54-14.13 2.10-13.55 2.10-12.82L2.10-11.23C2.10-10.50 2.54-9.91 3.23-9.74L4.71-9.39C4.72-9.34 4.75-9.30 4.76-9.26L3.95-7.98C3.57-7.38 3.64-6.66 4.17-6.13L5.37-4.93C5.87-4.42 6.60-4.35 7.20-4.71L8.53-5.50C8.57-5.48 8.61-5.47 8.65-5.46L8.98-3.96C9.14-3.27 9.71-2.81 10.45-2.81ZM10.68-4.45C10.56-4.45 10.50-4.51 10.46-4.64L9.96-6.73C9.40-6.86 8.88-7.11 8.47-7.34L6.64-6.22C6.53-6.16 6.45-6.16 6.36-6.25L5.47-7.13C5.39-7.21 5.38-7.29 5.45-7.39L6.55-9.21C6.41-9.56 6.11-10.09 5.96-10.70L3.90-11.19C3.79-11.23 3.73-11.29 3.73-11.40L3.73-12.64C3.73-12.76 3.79-12.82 3.90-12.86L5.96-13.35C6.11-13.96 6.41-14.48 6.55-14.84L5.45-16.65C5.38-16.76 5.39-16.84 5.47-16.92L6.36-17.80C6.45-17.88 6.53-17.88 6.64-17.82L8.47-16.71C8.88-16.93 9.40-17.19 9.96-17.32L10.46-19.41C10.50-19.54 10.56-19.59 10.68-19.59L11.94-19.59C12.06-19.59 12.12-19.54 12.15-19.41L12.66-17.32C13.22-17.19 13.73-16.93 14.14-16.71L15.97-17.82C16.08-17.88 16.17-17.88 16.25-17.80L17.14-16.92C17.23-16.84 17.24-16.76 17.17-16.65L16.07-14.84C16.21-14.48 16.51-13.96 16.65-13.35L18.71-12.86C18.83-12.82 18.89-12.76 18.89-12.64L18.89-11.40C18.89-11.29 18.83-11.23 18.71-11.19L16.65-10.70C16.51-10.09 16.21-9.56 16.07-9.21L17.17-7.39C17.24-7.29 17.23-7.21 17.14-7.13L16.25-6.25C16.17-6.16 16.08-6.16 15.97-6.22L14.14-7.34C13.73-7.11 13.22-6.86 12.66-6.73L12.15-4.64C12.12-4.51 12.06-4.45 11.94-4.45ZM11.31-8.48C13.25-8.48 14.85-10.07 14.85-12.02C14.85-13.98 13.25-15.56 11.31-15.56C9.35-15.56 7.76-13.98 7.76-12.02C7.76-10.07 9.35-8.48 11.31-8.48ZM11.31-10.17C10.28-10.17 9.45-10.99 9.45-12.02C9.45-13.05 10.28-13.88 11.31-13.88C12.33-13.88 13.16-13.05 13.16-12.02C13.16-10.99 12.33-10.17 11.31-10.17ZM25.84 4.30L27.19 4.30C27.86 4.30 28.42 3.91 28.52 3.30L28.75 2.12C28.80 2.11 28.84 2.10 28.88 2.09L29.87 2.71C30.41 3.05 31.08 2.98 31.55 2.48L32.50 1.54C32.96 1.05 33.06 0.39 32.70-0.15L32.06-1.11C32.07-1.16 32.09-1.18 32.11-1.23L33.27-1.48C33.87-1.61 34.27-2.14 34.27-2.81L34.27-4.13C34.27-4.78 33.87-5.33 33.27-5.46L32.11-5.70C32.09-5.74 32.07-5.78 32.06-5.82L32.70-6.79C33.06-7.32 32.96-7.98 32.50-8.46L31.55-9.42C31.08-9.90 30.41-9.98 29.87-9.64L28.88-9.02C28.84-9.04 28.80-9.05 28.75-9.06L28.52-10.23C28.42-10.85 27.86-11.24 27.19-11.24L25.84-11.24C25.17-11.24 24.61-10.85 24.49-10.23L24.27-9.06C24.22-9.05 24.19-9.04 24.14-9.02L23.14-9.64C22.61-9.98 21.95-9.90 21.48-9.42L20.53-8.46C20.06-7.98 19.97-7.32 20.32-6.79L20.95-5.82C20.94-5.78 20.93-5.74 20.92-5.70L19.76-5.46C19.15-5.33 18.75-4.78 18.75-4.13L18.75-2.81C18.75-2.14 19.15-1.61 19.76-1.48L20.92-1.23C20.93-1.18 20.94-1.16 20.95-1.11L20.32-0.15C19.97 0.39 20.06 1.05 20.53 1.54L21.48 2.48C21.95 2.98 22.61 3.05 23.14 2.71L24.14 2.09C24.19 2.10 24.22 2.11 24.27 2.12L24.49 3.30C24.61 3.91 25.17 4.30 25.84 4.30ZM26.14 2.74C26.00 2.74 25.93 2.67 25.90 2.55L25.49 0.87C25.02 0.76 24.60 0.60 24.15 0.30L22.68 1.23C22.58 1.29 22.46 1.28 22.37 1.20L21.84 0.64C21.74 0.54 21.73 0.45 21.80 0.34L22.69-1.10C22.59-1.38 22.28-1.89 22.16-2.46L20.48-2.85C20.37-2.87 20.30-2.96 20.30-3.08L20.30-3.86C20.30-3.97 20.37-4.07 20.48-4.09L22.16-4.48C22.28-5.05 22.59-5.54 22.69-5.84L21.80-7.28C21.73-7.37 21.74-7.48 21.84-7.58L22.37-8.12C22.46-8.21 22.58-8.23 22.68-8.16L24.15-7.24C24.60-7.52 25.02-7.70 25.49-7.80L25.90-9.49C25.93-9.61 26.00-9.68 26.14-9.68L26.87-9.68C27.01-9.68 27.08-9.61 27.12-9.49L27.53-7.80C28.00-7.70 28.42-7.52 28.86-7.24L30.34-8.16C30.45-8.23 30.55-8.21 30.64-8.12L31.18-7.58C31.28-7.48 31.29-7.37 31.23-7.28L30.33-5.84C30.43-5.54 30.74-5.05 30.86-4.48L32.53-4.09C32.65-4.07 32.72-3.97 32.72-3.86L32.72-3.08C32.72-2.96 32.65-2.87 32.53-2.85L30.86-2.46C30.74-1.89 30.43-1.38 30.33-1.10L31.23 0.34C31.29 0.45 31.28 0.54 31.18 0.64L30.64 1.20C30.55 1.28 30.45 1.29 30.34 1.23L28.86 0.30C28.42 0.60 28.00 0.76 27.53 0.87L27.12 2.55C27.08 2.67 27.01 2.74 26.87 2.74ZM26.50-0.71C28.01-0.71 29.25-1.96 29.25-3.47C29.25-4.98 28.01-6.21 26.50-6.21C24.98-6.21 23.75-4.98 23.75-3.47C23.75-1.96 24.98-0.71 26.50-0.71ZM26.50-2.20C25.80-2.20 25.24-2.78 25.24-3.47C25.24-4.16 25.80-4.72 26.50-4.72C27.19-4.72 27.76-4.16 27.76-3.47C27.76-2.78 27.19-2.20 26.50-2.20Z" fill="currentColor"/>
</svg>