<svg xmlns="http://www.w3.org/2000/svg" viewBox="0 0 24 24" width="24" height="24">
  <title>globe.americas</title>
  <path transform="matrix(0.8366013071895425, 0, 0, 0.8366013071895425, 0.2450980392156863, 19.07843137254902)" d="M14.05 3.49C20.65 3.49 26.00-1.86 26.00-8.46C26.00-15.06 20.65-20.41 14.05-20.41C7.45-20.41 2.10-15.06 2.10-8.46C2.10-1.86 7.45 3.49 14.05 3.49ZM13.90-0.75C13.90-0.88 13.93-0.97 14.06-1.38C14.18-1.76 14.36-2.27 14.34-2.84C14.33-3.60 13.71-4.14 12.34-5.11C12.09-5.29 11.84-5.46 11.58-5.66C11.20-5.94 11.05-6.19 11.05-6.47C11.05-6.62 11.09-6.79 11.20-7.15C11.31-7.52 11.38-7.82 11.38-8.03C11.38-8.55 11.11-8.91 10.55-9.39C10.46-9.45 10.41-9.50 10.34-9.56L8.46-11.24C6.12-13.34 6.13-14.54 7.08-16.10L7.05-16.10C8.91-17.79 11.36-18.82 14.05-18.82C15.94-18.82 17.71-18.32 19.23-17.44C18.54-16.01 16.01-14.81 14.68-14.12C14.43-13.99 14.29-13.70 14.52-13.37C15-12.70 15.21-12.41 15.21-12.15C15.21-11.96 15.07-11.82 14.87-11.82C14.48-11.82 13.21-12.91 12.54-12.91C11.75-12.91 10.85-12.08 10.85-11.33C10.85-10.25 13.02-8.47 14.12-8.47C14.78-8.47 15.95-9.30 16.32-9.30C17.10-9.30 19.29-7.46 19.29-6.84C19.29-5.46 15.53-0.27 14.51-0.27C14.24-0.27 13.90-0.53 13.90-0.75ZM14.05 1.90C8.33 1.90 3.69-2.74 3.69-8.46C3.69-10.51 4.29-12.43 5.32-14.04C5.43-12.96 6.08-11.75 7.68-10.35L9.54-8.71C9.97-8.32 10.20-8.17 10.20-7.99C10.20-7.73 9.87-7.18 9.87-6.47C9.87-5.80 10.20-5.20 10.86-4.71C12.23-3.68 13.16-3.12 13.16-2.81C13.17-2.10 12.71-1.51 12.71-0.70C12.71 0.11 13.69 0.91 14.54 0.91C16.23 0.91 20.47-4.69 20.47-6.84C20.47-8.14 17.78-10.48 16.32-10.48C15.66-10.48 14.71-9.66 14.12-9.66C13.58-9.66 12.04-10.89 12.04-11.33C12.04-11.51 12.32-11.73 12.54-11.73C12.88-11.73 14.09-10.64 14.77-10.64C15.75-10.64 16.39-11.29 16.39-12.30C16.39-12.66 16.25-13.00 15.95-13.43C17.20-14.06 19.41-15.27 20.23-16.78C22.76-14.89 24.41-11.87 24.41-8.46C24.41-2.74 19.77 1.90 14.05 1.90Z" fill="currentColor"/>
</svg>