<svg xmlns="http://www.w3.org/2000/svg" viewBox="0 0 24 24" width="24" height="24">
  <title>lightbulb</title>
  <path transform="matrix(0.7334192809053144, 0, 0, 0.7334192809053144, 4.058444348947143, 18.467554791577136)" d="M2.99-15.23C2.99-10.73 5.68-9.62 6.43-1.80C6.48-1.38 6.71-1.11 7.16-1.11L14.50-1.11C14.95-1.11 15.19-1.38 15.23-1.80C15.98-9.62 18.67-10.73 18.67-15.23C18.67-19.28 15.21-22.45 10.83-22.45C6.45-22.45 2.99-19.28 2.99-15.23ZM4.76-15.23C4.76-18.40 7.54-20.68 10.83-20.68C14.12-20.68 16.90-18.40 16.90-15.23C16.90-11.87 14.67-11.07 13.62-2.88L8.05-2.88C6.98-11.07 4.76-11.87 4.76-15.23ZM7.13 1.42L14.54 1.42C14.93 1.42 15.22 1.11 15.22 0.73C15.22 0.35 14.93 0.05 14.54 0.05L7.13 0.05C6.74 0.05 6.43 0.35 6.43 0.73C6.43 1.11 6.74 1.42 7.13 1.42ZM10.83 4.82C12.64 4.82 14.16 3.93 14.27 2.58L7.39 2.58C7.48 3.93 9 4.82 10.83 4.82Z" fill="currentColor"/>
</svg>