<svg xmlns="http://www.w3.org/2000/svg" viewBox="0 0 24 24" width="24" height="24">
  <title>map</title>
  <path transform="matrix(0.8205128205128205, 0, 0, 0.8205128205128205, -0.45192307692307665, 18.9375)" d="M4.31 2.65C4.61 2.65 4.91 2.54 5.29 2.33L11.25-0.88L17.73 2.75C18.15 2.99 18.61 3.11 19.04 3.11C19.45 3.11 19.86 3 20.21 2.80L26.34-0.68C27.05-1.07 27.36-1.63 27.36-2.41L27.36-18.20C27.36-19.07 26.88-19.55 26.04-19.55C25.75-19.55 25.44-19.45 25.05-19.24L18.84-15.79L12.48-19.69C12.12-19.90 11.71-20.02 11.30-20.02C10.88-20.02 10.45-19.90 10.09-19.69L4.00-16.22C3.30-15.82 2.99-15.26 2.99-14.47L2.99 1.29C2.99 2.16 3.47 2.65 4.31 2.65ZM10.49-2.74L5.20 0.16C5.14 0.19 5.09 0.22 5.03 0.22C4.93 0.22 4.88 0.15 4.88 0.04L4.88-14.02C4.88-14.30 4.98-14.50 5.26-14.66L10.07-17.47C10.22-17.55 10.35-17.63 10.49-17.71ZM12.38-2.55L12.38-17.46C12.49-17.39 12.63-17.32 12.75-17.25L17.98-14.06L17.98 0.59C17.81 0.49 17.64 0.41 17.46 0.32ZM19.86 0.80L19.86-14.18L25.15-17.06C25.21-17.10 25.27-17.12 25.31-17.12C25.42-17.12 25.48-17.05 25.48-16.93L25.48-2.88C25.48-2.59 25.36-2.39 25.09-2.23L20.39 0.50C20.21 0.61 20.04 0.71 19.86 0.80Z" fill="currentColor"/>
</svg>