<svg xmlns="http://www.w3.org/2000/svg" viewBox="0 0 32 32" width="32" height="32">
  <title>chart.bar.fill</title>
  <path transform="matrix(0.713091922005571, 0, 0, 0.713091922005571, -0.8412256267409473, 24.12256267409471)" d="M35.33 3.22L39.98 3.22C42.14 3.22 43.25 2.19 43.25 0.14L43.25-22.91C43.25-24.95 42.14-26 39.98-26L35.33-26C33.20-26 32.09-24.95 32.09-22.91L32.09 0.14C32.09 2.19 33.20 3.22 35.33 3.22ZM21.28 3.22L25.94 3.22C28.09 3.22 29.19 2.19 29.19 0.14L29.19-18.34C29.19-20.39 28.09-21.44 25.94-21.44L21.28-21.44C19.14-21.44 18.03-20.39 18.03-18.34L18.03 0.14C18.03 2.19 19.14 3.22 21.28 3.22ZM7.23 3.22L11.88 3.22C14.03 3.22 15.14 2.19 15.14 0.14L15.14-13.80C15.14-15.84 14.03-16.89 11.88-16.89L7.23-16.89C5.09-16.89 3.98-15.84 3.98-13.80L3.98 0.14C3.98 2.19 5.09 3.22 7.23 3.22Z" fill="currentColor"/>
</svg>