<svg xmlns="http://www.w3.org/2000/svg" viewBox="0 0 32 32" width="32" height="32">
  <title>square.and.arrow.up</title>
  <path transform="matrix(0.7978628673196795, 0, 0, 0.7978628673196795, 1.7569011576135347, 26.172751558325913)" d="M17.84-7.44C18.52-7.44 19.09-7.98 19.09-8.64L19.09-24.53L18.98-26.89L19.88-25.95L22.28-23.38C22.50-23.13 22.83-23 23.13-23C23.78-23 24.27-23.45 24.27-24.09C24.27-24.44 24.14-24.69 23.91-24.92L18.75-29.89C18.44-30.20 18.17-30.30 17.84-30.30C17.53-30.30 17.27-30.20 16.94-29.89L11.80-24.92C11.56-24.69 11.42-24.44 11.42-24.09C11.42-23.45 11.89-23 12.55-23C12.84-23 13.19-23.13 13.41-23.38L15.83-25.95L16.72-26.89L16.61-24.53L16.61-8.64C16.61-7.98 17.17-7.44 17.84-7.44ZM10.52 4.80L25.17 4.80C29.38 4.80 31.72 2.47 31.72-1.73L31.72-13.77C31.72-17.95 29.38-20.30 25.17-20.30L22.02-20.30L22.02-17.78L25.17-17.78C27.75-17.78 29.20-16.33 29.20-13.77L29.20-1.73C29.20 0.84 27.75 2.28 25.17 2.28L10.52 2.28C7.95 2.28 6.50 0.84 6.50-1.73L6.50-13.77C6.50-16.33 7.95-17.78 10.52-17.78L13.67-17.78L13.67-20.30L10.52-20.30C6.31-20.30 3.98-17.95 3.98-13.77L3.98-1.73C3.98 2.47 6.31 4.80 10.52 4.80Z" fill="currentColor"/>
</svg>