<svg xmlns="http://www.w3.org/2000/svg" viewBox="0 0 32 32" width="32" height="32">
  <title>brain</title>
  <path transform="matrix(0.6808510638297872, 0, 0, 0.6808510638297872, 0.0957446808510638, 23.680851063829788)" d="M2.80-12.47C2.80-6.77 6.70-2.98 12.56-2.98C13.45-2.98 14.30-3.06 15.09-3.22C16.81-1.67 19.41-0.67 22.41-0.67C23.50-0.67 24.72-0.81 25.94-1.11C27.06 0.11 28.80 0.81 30.78 0.81C31.16 0.81 31.56 0.78 31.97 0.77C32.33 3.42 34 6 36.70 6C40.61 6 42.52 1.25 42.52-3.38C42.52-5.02 42.44-6.22 42.34-7.30C43.36-8.61 43.92-10.31 43.92-12.33C43.92-16.28 41.27-19.33 37.20-20.14C36.39-23.86 33.27-26.23 29.77-26.23C29.45-26.23 29.02-26.17 28.58-26.08C27.33-27.63 25.33-28.56 23.14-28.56C20.75-28.56 18.72-27.66 17.33-26.13C16.17-26.66 14.98-26.89 13.83-26.89C10.05-26.89 7.02-24.31 7.02-20.61C7.02-20.56 7.02-20.50 7.02-20.45C4.39-18.69 2.80-15.67 2.80-12.47ZM15.34-21.03C15.31-20.22 15.86-19.67 16.58-19.67C17.27-19.67 17.80-20.13 17.83-20.92C17.94-23.89 20.09-26.06 23.13-26.06C24.95-26.06 26.55-25.09 27.19-23.66C27.31-23.42 27.48-23.41 27.78-23.50C28.30-23.64 28.88-23.72 29.44-23.72C32.23-23.69 34.89-21.58 34.89-18.22C34.89-10.88 24.58-11.89 24.58-4.73C24.58-4.27 24.64-3.81 24.73-3.41C24.06-3.25 23.34-3.19 22.67-3.19C21.02-3.19 19.34-3.59 18.08-4.28C20.66-5.72 22.19-8.27 22.19-11.48C22.19-11.81 22.17-12.14 22.13-12.45C25.64-13.36 27.22-15.75 27.22-19.22C27.22-19.91 26.64-20.47 25.95-20.47C25.27-20.47 24.70-19.91 24.70-19.22C24.70-16.88 23.80-15.41 21.42-14.84C21.09-15.45 20.69-15.98 20.19-16.41C19.61-16.88 19.28-17.05 18.73-17.05C18.02-17.05 17.52-16.61 17.52-15.97C17.52-15.19 17.97-14.98 18.69-14.33C19.34-13.69 19.72-12.72 19.72-11.53C19.72-7.91 16.88-5.48 12.61-5.48C8.23-5.48 5.31-8.28 5.31-12.48C5.31-14.52 6.17-16.44 7.64-17.77C8.59-15.84 10.59-14.64 13.27-14.64C13.94-14.64 14.52-15.20 14.52-15.89C14.52-16.58 13.94-17.16 13.27-17.16C10.95-17.16 9.53-18.61 9.53-20.61C9.53-22.83 11.36-24.38 13.81-24.38C14.52-24.38 15.25-24.25 15.97-23.97C15.61-23.08 15.39-22.09 15.34-21.03ZM33.72-5.70C33.72-5 34.28-4.50 34.98-4.45C36.89-4.33 38.56-4.64 39.94-5.34C39.98-4.73 40.02-4.11 40.02-3.41C40.02 0.39 38.58 3.48 36.70 3.48C34.77 3.48 33.98 0.91 33.98-1.14C33.98-1.31 33.89-1.42 33.67-1.41C33.23-1.41 32.64-1.39 32.25-1.39C29.14-1.39 27.09-2.36 27.09-4.78C27.09-10.36 36.92-9.27 37.39-17.61C39.84-17.09 41.41-15.09 41.41-12.33C41.41-8.81 38.83-6.66 34.98-6.95C34.28-7.02 33.72-6.39 33.72-5.70Z" fill="currentColor"/>
</svg>