<svg xmlns="http://www.w3.org/2000/svg" viewBox="0 0 32 32" width="32" height="32">
  <title>map.fill</title>
  <path transform="matrix(0.8615384615384616, 0, 0, 0.8615384615384616, -1.432692307692308, 25.739423076923078)" d="M15.78-0.73L23.66 3.69C23.89 3.81 24.14 3.92 24.38 3.98L24.38-21.52L16.66-26.23C16.39-26.41 16.08-26.53 15.78-26.59ZM3.98 1.72C3.98 2.86 4.64 3.52 5.77 3.52C6.17 3.52 6.56 3.39 7.08 3.11L13.64-0.44L13.64-26.33C13.36-26.19 13.05-26.03 12.77-25.88L5.36-21.63C4.42-21.11 3.98-20.36 3.98-19.31ZM26.50 3.94C26.66 3.89 26.83 3.83 26.97 3.73L35.11-0.89C36.05-1.41 36.48-2.16 36.48-3.20L36.48-24.25C36.48-25.41 35.83-26.05 34.70-26.05C34.30-26.05 33.91-25.92 33.39-25.64L26.50-21.81Z" fill="currentColor"/>
</svg>