<svg xmlns="http://www.w3.org/2000/svg" viewBox="0 0 24 24" width="24" height="24">
  <title>arrow.clockwise</title>
  <path transform="matrix(0.7945375543140907, 0, 0, 0.7945375543140907, 2.1117318435754173, 19.811918063314714)" d="M12.45 2.75C18.16 2.75 22.79-1.88 22.79-7.61C22.79-8.12 22.37-8.54 21.86-8.54C21.34-8.54 20.91-8.12 20.91-7.61C20.91-2.93 17.12 0.86 12.45 0.86C7.77 0.86 3.98-2.93 3.98-7.61C3.98-12.28 7.77-16.07 12.45-16.07C13.27-16.07 14.06-15.95 14.81-15.73L11.37-12.30C11.17-12.13 11.10-11.89 11.10-11.65C11.10-11.11 11.50-10.70 12.01-10.70C12.30-10.70 12.52-10.80 12.69-10.97L17.52-15.82C17.73-16.03 17.82-16.27 17.82-16.52C17.82-16.78 17.72-17.04 17.52-17.23L12.70-22.13C12.52-22.30 12.30-22.42 12.01-22.42C11.50-22.42 11.10-21.98 11.10-21.46C11.10-21.21 11.17-20.95 11.36-20.78L14.40-17.75C13.77-17.87 13.11-17.94 12.45-17.94C6.73-17.94 2.10-13.31 2.10-7.59C2.10-1.88 6.73 2.75 12.45 2.75Z" fill="currentColor"/>
</svg>