<svg xmlns="http://www.w3.org/2000/svg" viewBox="0 0 24 24" width="24" height="24">
  <title>bolt.horizontal</title>
  <path transform="matrix(0.6192115621311053, 0, 0, 0.6192115621311053, 0.5207403057915407, 16.9198293647448)" d="M2.79-3.47C1.68-2.04 3.11-0.88 4.39-1.63L12.89-6.48L22.97-1.08C23.44-0.84 23.84-0.70 24.22-0.70C24.76-0.70 25.25-0.95 25.72-1.55L34.35-12.45C35.29-13.63 34.14-15.09 32.72-14.30L24.22-9.41L14.13-14.81C13.68-15.07 13.25-15.19 12.88-15.19C12.33-15.19 11.86-14.94 11.39-14.34ZM5.45-3.93C5.31-3.86 5.24-3.97 5.33-4.08L12.75-13.07C12.91-13.28 13.07-13.30 13.29-13.18L23.80-7.57C24.29-7.31 24.45-7.38 24.83-7.63L31.70-12C31.80-12.07 31.92-11.95 31.83-11.85L24.38-2.82C24.21-2.63 24.05-2.59 23.84-2.71L13.31-8.32C12.82-8.58 12.67-8.52 12.28-8.27Z" fill="currentColor"/>
</svg>