<svg xmlns="http://www.w3.org/2000/svg" viewBox="0 0 24 24" width="24" height="24">
  <title>book.pages</title>
  <path transform="matrix(0.7548749462462049, 0, 0, 0.7548749462462049, 1.7472648902419747, 18.249215110839167)" d="M2.99 0.94C2.99 2.98 4.24 4.03 6.42 3.90C10.35 3.69 13.84 3.33 18.30 2.10C19.97 1.63 20.61 0.75 20.61-1.30L20.61-18.46C20.61-20.79 19.37-21.93 17.12-21.40C13.84-20.66 10.35-20.07 6.14-19.83C4.24-19.71 2.99-18.63 2.99-16.51ZM4.88 0.60L4.88-16.56C4.88-17.54 5.48-17.93 6.35-17.98C10.39-18.19 13.80-18.77 17.02-19.50C18.09-19.75 18.73-19.18 18.73-18.13L18.73-1.37C18.73-0.29 18.38 0.19 17.47 0.42C13.80 1.44 10.39 1.82 6.50 2.02C5.48 2.06 4.88 1.55 4.88 0.60ZM12.35 4.97L20.55 4.97C22.97 4.97 24.18 3.75 24.18 1.30L24.18-16.13C24.18-17.94 23.50-19.07 22.16-19.45C22.20-19.15 22.22-18.81 22.22-18.46L22.22-1.30C22.22 1.43 21.12 2.95 18.75 3.63C16.44 4.25 14.32 4.66 12.35 4.97ZM7.44-13.83C10.77-14.04 13.44-14.50 16.17-15.11C16.70-15.22 16.84-15.49 16.84-15.82C16.84-16.18 16.55-16.50 16.04-16.39C13.44-15.82 10.77-15.35 7.44-15.14C6.98-15.11 6.76-14.82 6.76-14.46C6.76-14.09 7.05-13.80 7.44-13.83ZM7.44-10.05C10.77-10.27 13.44-10.73 16.17-11.33C16.70-11.45 16.84-11.72 16.84-12.05C16.84-12.41 16.55-12.73 16.04-12.62C13.44-12.05 10.77-11.58 7.44-11.37C6.98-11.33 6.76-11.05 6.76-10.70C6.76-10.32 7.05-10.03 7.44-10.05ZM7.44-6.28C10.77-6.49 13.44-6.96 16.17-7.56C16.70-7.68 16.84-7.95 16.84-8.27C16.84-8.64 16.55-8.95 16.04-8.85C13.44-8.27 10.77-7.80 7.44-7.59C6.98-7.56 6.76-7.28 6.76-6.93C6.76-6.55 7.05-6.26 7.44-6.28ZM7.44-2.52C9.36-2.63 10.65-2.81 11.92-3.01C12.30-3.08 12.52-3.39 12.52-3.69C12.52-4.04 12.23-4.38 11.71-4.29C10.58-4.11 9.33-3.94 7.44-3.83C6.98-3.80 6.76-3.52 6.76-3.16C6.76-2.79 7.05-2.50 7.44-2.52Z" fill="currentColor"/>
</svg>