<svg xmlns="http://www.w3.org/2000/svg" viewBox="0 0 24 24" width="24" height="24">
  <title>calendar</title>
  <path transform="matrix(0.8563304900485031, 0, 0, 0.8563304900485031, -0.5589563472152537, 19.230306071249373)" d="M6.67 2.34L22.68 2.34C25.13 2.34 26.34 1.13 26.34-1.29L26.34-15.60C26.34-18.01 25.13-19.23 22.68-19.23L6.67-19.23C4.22-19.23 2.99-18.02 2.99-15.60L2.99-1.29C2.99 1.14 4.22 2.34 6.67 2.34ZM6.49 0.46C5.45 0.46 4.88-0.09 4.88-1.18L4.88-12.23C4.88-13.31 5.45-13.88 6.49-13.88L22.83-13.88C23.87-13.88 24.46-13.31 24.46-12.23L24.46-1.18C24.46-0.09 23.87 0.46 22.83 0.46ZM12.39-9.67L13.08-9.67C13.49-9.67 13.62-9.79 13.62-10.20L13.62-10.89C13.62-11.30 13.49-11.43 13.08-11.43L12.39-11.43C11.98-11.43 11.84-11.30 11.84-10.89L11.84-10.20C11.84-9.79 11.98-9.67 12.39-9.67ZM16.28-9.67L16.97-9.67C17.38-9.67 17.52-9.79 17.52-10.20L17.52-10.89C17.52-11.30 17.38-11.43 16.97-11.43L16.28-11.43C15.87-11.43 15.73-11.30 15.73-10.89L15.73-10.20C15.73-9.79 15.87-9.67 16.28-9.67ZM20.17-9.67L20.86-9.67C21.27-9.67 21.41-9.79 21.41-10.20L21.41-10.89C21.41-11.30 21.27-11.43 20.86-11.43L20.17-11.43C19.76-11.43 19.63-11.30 19.63-10.89L19.63-10.20C19.63-9.79 19.76-9.67 20.17-9.67ZM8.50-5.84L9.18-5.84C9.60-5.84 9.73-5.95 9.73-6.36L9.73-7.05C9.73-7.46 9.60-7.58 9.18-7.58L8.50-7.58C8.07-7.58 7.95-7.46 7.95-7.05L7.95-6.36C7.95-5.95 8.07-5.84 8.50-5.84ZM12.39-5.84L13.08-5.84C13.49-5.84 13.62-5.95 13.62-6.36L13.62-7.05C13.62-7.46 13.49-7.58 13.08-7.58L12.39-7.58C11.98-7.58 11.84-7.46 11.84-7.05L11.84-6.36C11.84-5.95 11.98-5.84 12.39-5.84ZM16.28-5.84L16.97-5.84C17.38-5.84 17.52-5.95 17.52-6.36L17.52-7.05C17.52-7.46 17.38-7.58 16.97-7.58L16.28-7.58C15.87-7.58 15.73-7.46 15.73-7.05L15.73-6.36C15.73-5.95 15.87-5.84 16.28-5.84ZM20.17-5.84L20.86-5.84C21.27-5.84 21.41-5.95 21.41-6.36L21.41-7.05C21.41-7.46 21.27-7.58 20.86-7.58L20.17-7.58C19.76-7.58 19.63-7.46 19.63-7.05L19.63-6.36C19.63-5.95 19.76-5.84 20.17-5.84ZM8.50-1.99L9.18-1.99C9.60-1.99 9.73-2.12 9.73-2.53L9.73-3.22C9.73-3.63 9.60-3.75 9.18-3.75L8.50-3.75C8.07-3.75 7.95-3.63 7.95-3.22L7.95-2.53C7.95-2.12 8.07-1.99 8.50-1.99ZM12.39-1.99L13.08-1.99C13.49-1.99 13.62-2.12 13.62-2.53L13.62-3.22C13.62-3.63 13.49-3.75 13.08-3.75L12.39-3.75C11.98-3.75 11.84-3.63 11.84-3.22L11.84-2.53C11.84-2.12 11.98-1.99 12.39-1.99ZM16.28-1.99L16.97-1.99C17.38-1.99 17.52-2.12 17.52-2.53L17.52-3.22C17.52-3.63 17.38-3.75 16.97-3.75L16.28-3.75C15.87-3.75 15.73-3.63 15.73-3.22L15.73-2.53C15.73-2.12 15.87-1.99 16.28-1.99Z" fill="currentColor"/>
</svg>