<svg xmlns="http://www.w3.org/2000/svg" viewBox="0 0 24 24" width="24" height="24">
  <title>chart.bar</title>
  <path transform="matrix(0.6716515807424899, 0, 0, 0.6716515807424899, -0.007083825265643551, 17.68673750491932)" d="M26.82 2.57L29.99 2.57C31.82 2.57 32.77 1.69 32.77-0.05L32.77-16.88C32.77-18.61 31.82-19.50 29.99-19.50L26.82-19.50C25.01-19.50 24.07-18.61 24.07-16.88L24.07-0.05C24.07 1.69 25.01 2.57 26.82 2.57ZM27.14 0.80C26.25 0.80 25.93 0.49 25.93-0.39L25.93-16.54C25.93-17.41 26.25-17.73 27.14-17.73L29.68-17.73C30.59-17.73 30.90-17.41 30.90-16.54L30.90-0.39C30.90 0.49 30.59 0.80 29.68 0.80ZM16.29 2.57L19.45 2.57C21.28 2.57 22.22 1.69 22.22-0.05L22.22-13.45C22.22-15.19 21.28-16.08 19.45-16.08L16.29-16.08C14.46-16.08 13.52-15.19 13.52-13.45L13.52-0.05C13.52 1.69 14.46 2.57 16.29 2.57ZM16.61 0.80C15.70 0.80 15.39 0.49 15.39-0.39L15.39-13.11C15.39-13.99 15.70-14.31 16.61-14.31L19.15-14.31C20.05-14.31 20.36-13.99 20.36-13.11L20.36-0.39C20.36 0.49 20.05 0.80 19.15 0.80ZM5.75 2.57L8.91 2.57C10.73 2.57 11.68 1.69 11.68-0.05L11.68-10.04C11.68-11.78 10.73-12.67 8.91-12.67L5.75-12.67C3.93-12.67 2.99-11.78 2.99-10.04L2.99-0.05C2.99 1.69 3.93 2.57 5.75 2.57ZM6.06 0.80C5.17 0.80 4.85 0.49 4.85-0.39L4.85-9.70C4.85-10.59 5.17-10.90 6.06-10.90L8.60-10.90C9.50-10.90 9.82-10.59 9.82-9.70L9.82-0.39C9.82 0.49 9.50 0.80 8.60 0.80Z" fill="currentColor"/>
</svg>