<svg xmlns="http://www.w3.org/2000/svg" viewBox="0 0 24 24" width="24" height="24">
  <title>checkmark.circle</title>
  <path transform="matrix(0.8366013071895425, 0, 0, 0.8366013071895425, 0.2450980392156863, 19.07843137254902)" d="M14.05 3.49C20.65 3.49 26.00-1.86 26.00-8.46C26.00-15.06 20.65-20.41 14.05-20.41C7.45-20.41 2.10-15.06 2.10-8.46C2.10-1.86 7.45 3.49 14.05 3.49ZM14.05 1.50C8.54 1.50 4.09-2.95 4.09-8.46C4.09-13.97 8.54-18.42 14.05-18.42C19.56-18.42 24.01-13.97 24.01-8.46C24.01-2.95 19.56 1.50 14.05 1.50ZM12.76-2.89C13.15-2.89 13.48-3.08 13.71-3.45L19.07-11.87C19.20-12.11 19.35-12.36 19.35-12.62C19.35-13.15 18.88-13.49 18.39-13.49C18.09-13.49 17.80-13.30 17.58-12.96L12.71-5.16L10.41-8.14C10.13-8.52 9.87-8.61 9.54-8.61C9.04-8.61 8.64-8.20 8.64-7.69C8.64-7.43 8.74-7.18 8.91-6.96L11.77-3.45C12.06-3.06 12.38-2.89 12.76-2.89Z" fill="currentColor"/>
</svg>