<svg xmlns="http://www.w3.org/2000/svg" viewBox="0 0 24 24" width="24" height="24">
  <title>cpu</title>
  <path transform="matrix(0.8482438701126573, 0, 0, 0.8482438701126573, -0.5347912524850895, 19.166998011928428)" d="M2.99-4.57C2.99-4.01 3.36-3.62 3.93-3.62L5.13-3.62L5.13 0.27C5.13 0.83 5.51 1.20 6.07 1.20L9.95 1.20L9.95 2.40C9.95 2.96 10.34 3.34 10.90 3.34C11.46 3.34 11.84 2.96 11.84 2.40L11.84 1.20L13.84 1.20L13.84 2.40C13.84 2.96 14.21 3.34 14.78 3.34C15.34 3.34 15.73 2.96 15.73 2.40L15.73 1.20L17.72 1.20L17.72 2.40C17.72 2.96 18.09 3.34 18.66 3.34C19.23 3.34 19.61 2.96 19.61 2.40L19.61 1.20L23.48 1.20C24.05 1.20 24.42 0.83 24.42 0.27L24.42-3.63L25.63-3.63C26.19-3.63 26.57-4.02 26.57-4.58C26.57-5.14 26.19-5.52 25.63-5.52L24.42-5.52L24.42-7.52L25.63-7.52C26.19-7.52 26.57-7.90 26.57-8.46C26.57-9.02 26.19-9.41 25.63-9.41L24.42-9.41L24.42-11.40L25.63-11.40C26.19-11.40 26.57-11.79 26.57-12.35C26.57-12.91 26.19-13.29 25.63-13.29L24.42-13.29L24.42-17.16C24.42-17.72 24.05-18.09 23.48-18.09L19.61-18.09L19.61-19.29C19.61-19.85 19.23-20.24 18.66-20.24C18.09-20.24 17.72-19.85 17.72-19.29L17.72-18.09L15.73-18.09L15.73-19.29C15.73-19.85 15.34-20.24 14.78-20.24C14.21-20.24 13.84-19.85 13.84-19.29L13.84-18.09L11.84-18.09L11.84-19.29C11.84-19.85 11.46-20.24 10.90-20.24C10.34-20.24 9.95-19.85 9.95-19.29L9.95-18.09L6.07-18.09C5.51-18.09 5.13-17.72 5.13-17.16L5.13-13.28L3.93-13.28C3.36-13.28 2.99-12.90 2.99-12.34C2.99-11.78 3.36-11.39 3.93-11.39L5.13-11.39L5.13-9.40L3.93-9.40C3.36-9.40 2.99-9.01 2.99-8.45C2.99-7.89 3.36-7.51 3.93-7.51L5.13-7.51L5.13-5.51L3.93-5.51C3.36-5.51 2.99-5.13 2.99-4.57ZM7.02-1.03L7.02-15.86C7.02-16.11 7.11-16.21 7.36-16.21L22.20-16.21C22.44-16.21 22.54-16.11 22.54-15.86L22.54-1.03C22.54-0.77 22.44-0.69 22.20-0.69L7.36-0.69C7.11-0.69 7.02-0.77 7.02-1.03ZM10.43-3.20L19.15-3.20C19.75-3.20 20.03-3.48 20.03-4.10L20.03-12.80C20.03-13.41 19.75-13.69 19.15-13.69L10.43-13.69C9.83-13.69 9.54-13.41 9.54-12.80L9.54-4.10C9.54-3.48 9.83-3.20 10.43-3.20ZM11.07-5.02L11.07-11.87C11.07-12.05 11.19-12.15 11.36-12.15L18.21-12.15C18.39-12.15 18.49-12.05 18.49-11.87L18.49-5.02C18.49-4.85 18.39-4.73 18.21-4.73L11.36-4.73C11.19-4.73 11.07-4.85 11.07-5.02Z" fill="currentColor"/>
</svg>