<svg xmlns="http://www.w3.org/2000/svg" viewBox="0 0 24 24" width="24" height="24">
  <title>creditcard</title>
  <path transform="matrix(0.7262411347517731, 0, 0, 0.7262411347517731, -0.17021276595744705, 18.136170212765958)" d="M6.67 1.56L26.85 1.56C29.31 1.56 30.53 0.35 30.53-2.06L30.53-14.82C30.53-17.24 29.31-18.46 26.85-18.46L6.67-18.46C4.22-18.46 2.99-17.24 2.99-14.82L2.99-2.06C2.99 0.35 4.22 1.56 6.67 1.56ZM4.88-14.72C4.88-15.94 5.52-16.57 6.69-16.57L26.82-16.57C27.97-16.57 28.64-15.94 28.64-14.72L28.64-13.79L4.88-13.79ZM6.69-0.33C5.52-0.33 4.88-0.95 4.88-2.17L4.88-11.13L28.64-11.13L28.64-2.17C28.64-0.95 27.97-0.33 26.82-0.33ZM8.25-2.54L11.12-2.54C11.81-2.54 12.27-3.01 12.27-3.67L12.27-5.84C12.27-6.50 11.81-6.96 11.12-6.96L8.25-6.96C7.56-6.96 7.10-6.50 7.10-5.84L7.10-3.67C7.10-3.01 7.56-2.54 8.25-2.54Z" fill="currentColor"/>
</svg>