<svg xmlns="http://www.w3.org/2000/svg" viewBox="0 0 24 24" width="24" height="24">
  <title>cylinder.fill</title>
  <path transform="matrix(0.8099984179718399, 0, 0, 0.8099984179718399, 1.4162316089226388, 18.858092074038918)" d="M2.99-1.64C2.99 1.59 7.05 3.88 13.07 3.88C19.08 3.88 23.14 1.59 23.14-1.64L23.14-15.82C23.14-18.77 19.11-20.81 13.07-20.81C7.02-20.81 2.99-18.77 2.99-15.82ZM4.88-15.82C4.88-17.79 8.16-19.16 13.07-19.16C17.98-19.16 21.26-17.79 21.26-15.82C21.26-13.93 17.95-12.61 13.07-12.61C8.18-12.61 4.88-13.93 4.88-15.82Z" fill="currentColor"/>
</svg>