<svg xmlns="http://www.w3.org/2000/svg" viewBox="0 0 24 24" width="24" height="24">
  <title>figure.surfing</title>
  <path transform="matrix(0.7077799401181283, 0, 0, 0.7077799401181283, 0.05534342503174683, 17.935794875102935)" d="M12.69-0.55C13.22-0.19 13.98-0.30 14.37-0.83L17.13-4.70L19.75-4.25L17.17-0.41C16.80 0.15 16.93 0.93 17.51 1.25C18.19 1.65 18.84 1.43 19.17 0.93L22.66-4.32C23.11-5.02 22.88-6.09 21.87-6.34L17.07-7.49C16.61-7.61 16.43-8.00 16.70-8.41L18.73-11.44C18.87-11.66 19.14-11.71 19.35-11.55L22.29-9.54C22.44-9.45 22.58-9.38 22.76-9.35L29.34-8.14C29.93-8.04 30.63-8.41 30.75-9.12C30.86-9.76 30.43-10.39 29.79-10.50L23.45-11.66L13.68-18.34L16.48-20.34C17.03-20.73 17.14-21.48 16.77-22.01C16.37-22.55 15.62-22.68 15.09-22.30L10.90-19.30C10.21-18.80 10.20-17.81 10.91-17.33L14.48-14.88C14.68-14.73 14.74-14.47 14.59-14.27L11.61-9.94C10.37-8.13 11.14-5.68 13.58-5.29L14.48-5.13L12.41-2.24C12.02-1.70 12.14-0.94 12.69-0.55ZM20.65-15.70C22.05-15.70 23.21-16.85 23.21-18.26C23.21-19.66 22.05-20.82 20.65-20.82C19.24-20.82 18.09-19.66 18.09-18.26C18.09-16.85 19.24-15.70 20.65-15.70ZM3.95 0.66C4.84 0.66 6.13 0.33 7.32-0.36C12.98 3.13 20.81 5.74 28.73 5.74C29.10 5.74 29.38 5.46 29.38 5.10C29.38 4.73 29.10 4.44 28.73 4.44C18.96 4.44 9.42 0.40 4.09-4.36C3.79-4.63 3.45-4.58 3.22-4.38C2.94-4.14 2.87-3.69 3.23-3.36C3.86-2.82 4.52-2.29 5.24-1.76C4.79-1.29 4.38-1.00 3.69-0.61C3.34-0.40 3.20-0.09 3.29 0.21C3.35 0.45 3.60 0.66 3.95 0.66Z" fill="currentColor"/>
</svg>