<svg xmlns="http://www.w3.org/2000/svg" viewBox="0 0 24 24" width="24" height="24">
  <title>info.circle</title>
  <path transform="matrix(0.8366013071895425, 0, 0, 0.8366013071895425, 0.2450980392156863, 19.07843137254902)" d="M14.05 3.49C20.65 3.49 26.00-1.86 26.00-8.46C26.00-15.06 20.65-20.41 14.05-20.41C7.45-20.41 2.10-15.06 2.10-8.46C2.10-1.86 7.45 3.49 14.05 3.49ZM14.05 1.50C8.54 1.50 4.09-2.95 4.09-8.46C4.09-13.97 8.54-18.42 14.05-18.42C19.56-18.42 24.01-13.97 24.01-8.46C24.01-2.95 19.56 1.50 14.05 1.50ZM13.95-12.52C14.80-12.52 15.47-13.20 15.47-14.05C15.47-14.91 14.80-15.59 13.95-15.59C13.10-15.59 12.42-14.91 12.42-14.05C12.42-13.20 13.10-12.52 13.95-12.52ZM12-1.90L16.77-1.90C17.25-1.90 17.63-2.25 17.63-2.73C17.63-3.19 17.25-3.55 16.77-3.55L15.32-3.55L15.32-9.52C15.32-10.15 15-10.57 14.40-10.57L12.20-10.57C11.72-10.57 11.34-10.21 11.34-9.75C11.34-9.27 11.72-8.92 12.20-8.92L13.45-8.92L13.45-3.55L12-3.55C11.52-3.55 11.14-3.19 11.14-2.73C11.14-2.25 11.52-1.90 12-1.90Z" fill="currentColor"/>
</svg>