<svg xmlns="http://www.w3.org/2000/svg" viewBox="0 0 24 24" width="24" height="24">
  <title>lock.shield.fill</title>
  <path transform="matrix(0.8584842387659289, 0, 0, 0.8584842387659289, 1.2052313883299788, 19.102615694164992)" d="M12.57 3.38C12.76 3.38 13.05 3.30 13.35 3.15C20.02-0.34 22.16-2.09 22.16-6.29L22.16-15.13C22.16-16.34 21.64-16.72 20.66-17.13C19.29-17.70 14.91-19.29 13.55-19.76C13.23-19.86 12.90-19.92 12.57-19.92C12.25-19.92 11.92-19.85 11.61-19.76C10.24-19.31 5.86-17.68 4.49-17.13C3.52-16.73 2.99-16.34 2.99-15.13L2.99-6.29C2.99-2.09 5.25-0.54 11.80 3.15C12.11 3.32 12.39 3.38 12.57 3.38ZM8.23-3.93L8.23-8.73C8.23-9.59 8.58-10.01 9.28-10.05L9.28-11.47C9.28-13.70 10.62-15.20 12.59-15.20C14.55-15.20 15.89-13.70 15.89-11.47L15.89-10.05C16.59-10.01 16.95-9.59 16.95-8.73L16.95-3.93C16.95-3.02 16.55-2.60 15.71-2.60L9.46-2.60C8.63-2.60 8.23-3.02 8.23-3.93ZM10.55-10.07L14.63-10.07L14.63-11.61C14.63-13.03 13.80-13.97 12.59-13.97C11.37-13.97 10.55-13.03 10.55-11.61Z" fill="currentColor"/>
</svg>