<svg xmlns="http://www.w3.org/2000/svg" viewBox="0 0 24 24" width="24" height="24">
  <title>mountain.2.fill</title>
  <path transform="matrix(0.48523025587409147, 0, 0, 0.48523025587409147, 0.8402526677092179, 16.007418430577097)" d="M24.87-9.52C25.92-9.52 26.87-11.11 28.79-11.11C30.73-11.11 31.68-9.52 32.73-9.52C33.60-9.52 34.41-10.63 35.78-10.97L30.83-17.47C29.68-18.98 27.93-19.01 26.75-17.47L21.81-10.97C23.19-10.62 24.01-9.52 24.87-9.52ZM10.45-6.53C11.37-6.53 12.20-7.92 13.88-7.92C15.27-7.92 16.14-6.94 16.48-6.94C16.59-6.94 16.70-6.98 16.82-7.07L18.52-9.29L15.90-12.53C14.70-14.03 13.08-14.02 11.86-12.53L7.97-7.70C9.11-7.42 9.77-6.53 10.45-6.53ZM16.11 2.10L41.48 2.10C43.62 2.10 44.13-0.01 43.08-1.39L36.94-9.46C36.76-9.53 36.59-9.57 36.40-9.57C35.44-9.47 34.62-8.05 32.73-8.05C30.73-8.05 29.92-9.64 28.79-9.64C27.68-9.64 26.87-8.05 24.87-8.05C22.92-8.05 22.03-9.59 21.15-9.59C20.98-9.59 20.81-9.52 20.64-9.42L14.52-1.38C13.46 0 13.98 2.10 16.11 2.10ZM4.56 2.10L12.94 2.10C12.13 0.83 12.18-0.94 13.24-2.36L15.86-5.79C15-5.98 14.60-6.63 13.88-6.63C12.90-6.63 12.21-5.24 10.45-5.24C8.86-5.24 8.20-6.48 7.42-6.48C7.20-6.48 6.98-6.38 6.79-6.22L3.06-1.62C1.80-0.06 2.32 2.10 4.56 2.10Z" fill="currentColor"/>
</svg>