<svg xmlns="http://www.w3.org/2000/svg" viewBox="0 0 24 24" width="24" height="24">
  <title>server.rack</title>
  <path transform="matrix(0.7237772123268307, 0, 0, 0.7237772123268307, -0.16284987277353702, 18.119592875318066)" d="M6.67 2.33L26.94 2.33C29.40 2.33 30.62 1.13 30.62-1.29L30.62-15.61C30.62-18.02 29.40-19.24 26.94-19.24L6.67-19.24C4.22-19.24 2.99-18.02 2.99-15.61L2.99-1.29C2.99 1.13 4.22 2.33 6.67 2.33ZM4.88-15.50C4.88-16.72 5.52-17.36 6.69-17.36L26.92-17.36C28.08-17.36 28.73-16.72 28.73-15.50L28.73-12.59L4.88-12.59ZM24.61-13.46C25.42-13.49 26.10-14.16 26.10-14.96C26.10-15.79 25.42-16.48 24.61-16.48C23.81-16.48 23.12-15.79 23.12-14.96C23.12-14.16 23.81-13.45 24.61-13.46ZM4.88-6.07L4.88-10.82L28.73-10.82L28.73-6.07ZM24.61-6.97C25.42-7.00 26.10-7.66 26.10-8.47C26.10-9.29 25.42-9.98 24.61-9.98C23.81-9.98 23.12-9.29 23.12-8.47C23.12-7.66 23.81-6.96 24.61-6.97ZM6.69 0.45C5.52 0.45 4.88-0.18 4.88-1.39L4.88-4.30L28.73-4.30L28.73-1.39C28.73-0.18 28.08 0.45 26.92 0.45ZM24.61-0.48C25.42-0.50 26.10-1.17 26.10-1.98C26.10-2.80 25.42-3.49 24.61-3.49C23.81-3.49 23.12-2.80 23.12-1.98C23.12-1.17 23.81-0.47 24.61-0.48Z" fill="currentColor"/>
</svg>