<svg xmlns="http://www.w3.org/2000/svg" viewBox="0 0 24 24" width="24" height="24">
  <title>sun.horizon.fill</title>
  <path transform="matrix(0.6658863311223826, 0, 0, 0.6658863311223826, 0.010144362075692692, 18.24268435427234)" d="M18.01-13.97C18.53-13.98 18.96-14.43 18.96-15.02L18.96-17.91C18.96-18.52 18.53-18.95 18.01-18.95C17.48-18.95 17.05-18.52 17.05-17.91L17.05-15.02C17.05-14.43 17.48-13.96 18.01-13.97ZM24.05-11.47C24.42-11.11 25.04-11.11 25.46-11.54L27.50-13.58C27.95-14.02 27.93-14.61 27.56-14.99C27.20-15.36 26.59-15.38 26.16-14.93L24.12-12.89C23.68-12.47 23.67-11.84 24.05-11.47ZM10.55-11.54C10.97-11.11 11.60-11.10 11.96-11.47C12.33-11.85 12.33-12.47 11.89-12.89L9.86-14.93C9.42-15.38 8.82-15.35 8.45-14.99C8.07-14.63 8.06-14.02 8.51-13.58ZM24.35-5.45C24.35-8.92 21.48-11.81 18.01-11.81C14.53-11.81 11.66-8.92 11.66-5.45C11.66-4.59 11.84-3.79 12.16-3.05L23.85-3.05C24.18-3.79 24.35-4.59 24.35-5.45ZM5.53-4.78L8.41-4.78C9.02-4.78 9.48-5.20 9.47-5.73C9.46-6.26 9.01-6.68 8.41-6.68L5.53-6.68C4.92-6.68 4.49-6.26 4.49-5.73C4.49-5.20 4.92-4.78 5.53-4.78ZM27.60-4.78L30.48-4.78C31.09-4.78 31.52-5.20 31.52-5.73C31.52-6.26 31.09-6.68 30.48-6.68L27.60-6.68C27-6.68 26.53-6.26 26.54-5.73C26.55-5.20 27-4.78 27.60-4.78ZM4.01 0.20L32.00 0.20C32.55 0.20 33.02-0.22 33.02-0.74C33.02-1.25 32.55-1.68 32.00-1.68L4.01-1.68C3.46-1.68 2.99-1.25 2.99-0.74C2.99-0.22 3.46 0.20 4.01 0.20Z" fill="currentColor"/>
</svg>