<svg xmlns="http://www.w3.org/2000/svg" viewBox="0 0 24 24" width="24" height="24">
  <title>tent.fill</title>
  <path transform="matrix(0.5686993224480729, 0, 0, 0.5686993224480729, 0.6404531822725759, 16.725931557198166)" d="M9.54 3.64L30.40 3.64C31.86 3.64 32.27 2.32 31.71 1.21L25.84-10.57L35.59 3.06C35.88 3.47 36.25 3.61 36.59 3.61C37.09 3.61 37.56 3.32 37.56 2.63L37.56-0.88C37.56-1.31 37.20-1.68 36.76-1.68C36.33-1.68 35.98-1.31 35.98-0.88L35.98 0.91L21.39-19.46C20.63-20.54 19.31-20.52 18.55-19.46L3.97 0.91L3.97-0.88C3.97-1.31 3.62-1.68 3.19-1.68C2.74-1.68 2.39-1.31 2.39-0.88L2.39 2.63C2.39 3.32 2.86 3.61 3.36 3.61C3.70 3.61 4.07 3.47 4.36 3.06L14.11-10.57L8.24 1.21C7.68 2.32 8.07 3.64 9.54 3.64ZM14.06 1.85L19.22-8.99C19.38-9.33 19.68-9.49 19.97-9.49C20.26-9.49 20.55-9.33 20.71-8.99L25.88 1.85L21.86 1.85L19.97-6.45L18.07 1.85Z" fill="currentColor"/>
</svg>